<?xml version="1.0" encoding="utf-8"?>
<!-- Svg Vector Icons : http://www.onlinewebfonts.com/icon -->
<!DOCTYPE svg PUBLIC "-//W3C//DTD SVG 1.1//EN" "http://www.w3.org/Graphics/SVG/1.1/DTD/svg11.dtd">
<svg version="1.1" xmlns="http://www.w3.org/2000/svg" xmlns:xlink="http://www.w3.org/1999/xlink" x="0px" y="0px" viewBox="0 0 1000 1000" enable-background="new 0 0 1000 1000" xml:space="preserve">
<metadata> Svg Vector Icons : http://www.onlinewebfonts.com/icon </metadata>
<g><g transform="translate(0.000000,511.000000) scale(0.100000,-0.100000)"><path d="M4420.9,4624.6c-1620.8-194-2965.1-1138.8-3579.6-2513.8C551.3,1467.5,424.5,849.2,403.4,8c-11.5-466.7-13.4-482-59.5-555C278.6-650.7,196-852.3,144.2-1030.9C101.9-1173,100-1215.3,100-1749.1c0-518.5,3.8-583.8,44.2-766.2c97.9-441.7,255.4-731.7,570.4-1048.5c117.1-117.1,278.5-259.2,361-315c180.5-122.9,535.8-309.2,589.6-309.2c71.1,0,82.6,59.5,59.5,363c-48,647.2-207.4,1665-453.2,2892.1c-126.7,635.6-144,766.2-144,1136.9c0,666.4,126.7,1202.2,414.8,1751.4c169,318.8,322.6,528.1,574.2,781.6c526.2,526.2,1150.3,806.6,2083.6,933.3c119.1,17.3,399.4,25,806.6,25c691.3-1.9,941-26.9,1392.3-144c1081.2-278.5,1837.8-977.5,2243-2074c176.7-476.3,249.6-1200.2,176.7-1751.4c-15.4-121-63.4-386-105.6-589.6c-228.5-1096.5-437.9-2437-472.4-3030.4c-19.2-338-5.8-347.6,282.3-201.6c280.4,140.2,508.9,301.5,710.5,503.2c459,453.2,637.6,931.4,664.5,1766.7c15.4,510.8-49.9,845-234.3,1209.9L9581-452.9l-9.6,432.1c-15.4,620.3-73,1021.7-215.1,1519c-215.1,745.1-585.7,1367.3-1127.3,1889.7c-649.1,629.9-1455.7,1023.6-2448.5,1202.2c-182.4,32.7-320.7,42.3-716.3,48C4795.4,4640,4505.4,4634.2,4420.9,4624.6z"/><path d="M1718.9,342.2c-21.1-11.5-34.6-42.2-34.6-78.7c0-30.7,78.7-585.7,174.8-1232.9c94.1-645.2,245.8-1663,334.1-2262.2s170.9-1106.1,182.4-1127.3c40.3-74.9,338-80.6,437.8-7.7c238.1,176.7,255.4,562.7,78.7,1695.7c-74.9,476.3-217,1252.1-364.9,1978c-94.1,462.8-126.7,591.5-182.4,704.8c-76.8,159.4-211.2,293.8-330.3,328.4C1922.5,369.1,1763.1,369.1,1718.9,342.2z"/><path d="M7956.3,344.1c-136.3-42.3-278.5-188.2-357.2-374.5c-73-169-439.8-2077.9-556.9-2890.2c-128.7-893-115.2-1209.8,53.8-1388.4c80.7-84.5,144-109.5,280.4-109.5c136.3,0,217,26.9,232.4,76.8c15.4,48,681.7,4564.8,681.7,4620.5c0,32.7-15.4,51.9-49.9,65.3C8182.9,367.2,8033.1,367.2,7956.3,344.1z"/></g></g>
</svg>