<?xml version="1.0" encoding="iso-8859-1"?>
<!-- Generator: Adobe Illustrator 19.0.0, SVG Export Plug-In . SVG Version: 6.00 Build 0)  -->
<svg version="1.1" id="Capa_1" xmlns="http://www.w3.org/2000/svg" xmlns:xlink="http://www.w3.org/1999/xlink" x="0px" y="0px"
	 viewBox="0 0 502.664 502.664" style="enable-background:new 0 0 502.664 502.664;" xml:space="preserve">
<g>
	<g>
		<g>
			<path style="fill:#010002;" d="M301.455,328.307l-15.315,9.383l-23.383-22.606c36.455-51.144,32.097-122.457-13.762-168.338
				c-51.166-51.144-134.041-51.058-185.12,0.022c-51.101,51.08-51.101,133.933-0.022,185.099
				c45.903,45.946,117.302,50.195,168.446,13.676l21.916,21.096l-8.822,17.688l118.402,118.337c0,0,25.691,0.302,41.243-17.472
				c15.531-17.688,14.754-38.504,14.754-38.504L301.455,328.307z M227.812,168.015c39.302,39.367,39.302,103.151-0.086,142.54
				c-39.324,39.367-103.195,39.367-142.561,0C45.777,271.231,45.82,207.403,85.23,168.058
				C124.467,128.67,188.36,128.627,227.812,168.015z"/>
			<path style="fill:#010002;" d="M473.008,91.676c-6.644-13.999-11.519-21.463-36.843-36.821
				c-16.07-9.728-28.387-28.711-35.311-41.308V0h-16.351v179.426c-15.962-6.903-39.777-0.173-58.22,18.012
				c-22.11,21.873-28.085,51.727-13.374,66.718c14.798,14.884,44.673,9.319,66.805-12.554c14.884-14.711,22.261-32.96,21.139-47.909
				V81.538c9.47,2.308,28.128,8.046,42.991,20.169c20.708,16.911,19.953,38.374,19.953,38.374S486.079,119.351,473.008,91.676z"/>
		</g>
	</g>
	<g>
	</g>
	<g>
	</g>
	<g>
	</g>
	<g>
	</g>
	<g>
	</g>
	<g>
	</g>
	<g>
	</g>
	<g>
	</g>
	<g>
	</g>
	<g>
	</g>
	<g>
	</g>
	<g>
	</g>
	<g>
	</g>
	<g>
	</g>
	<g>
	</g>
</g>
<g>
</g>
<g>
</g>
<g>
</g>
<g>
</g>
<g>
</g>
<g>
</g>
<g>
</g>
<g>
</g>
<g>
</g>
<g>
</g>
<g>
</g>
<g>
</g>
<g>
</g>
<g>
</g>
<g>
</g>
</svg>
